<svg width="20" height="20" viewBox="0 0 20 20" fill="none" xmlns="http://www.w3.org/2000/svg">
<path fill-rule="evenodd" clip-rule="evenodd" d="M14.5833 12.5C14.2064 12.5 13.674 12.5521 13.1198 12.628C12.8608 12.6634 12.6634 12.8609 12.6279 13.1198C12.552 13.6741 12.4999 14.2065 12.4999 14.5833C12.4999 14.9601 12.552 15.4925 12.6279 16.0468C12.6634 16.3057 12.8608 16.5032 13.1198 16.5387C13.674 16.6146 14.2064 16.6666 14.5833 16.6666C14.9601 16.6666 15.4925 16.6146 16.0467 16.5387C16.3057 16.5032 16.5031 16.3057 16.5386 16.0468C16.6145 15.4925 16.6666 14.9601 16.6666 14.5833C16.6666 14.2065 16.6145 13.6741 16.5386 13.1198C16.5031 12.8609 16.3057 12.6634 16.0467 12.628C15.4925 12.5521 14.9601 12.5 14.5833 12.5ZM12.8936 10.9767C11.8937 11.1137 11.1136 11.8938 10.9767 12.8937C10.8981 13.4672 10.8333 14.0901 10.8333 14.5833C10.8333 15.0765 10.8981 15.6994 10.9767 16.273C11.1136 17.2729 11.8937 18.053 12.8936 18.1899C13.4671 18.2684 14.0901 18.3333 14.5833 18.3333C15.0765 18.3333 15.6994 18.2684 16.2729 18.1899C17.2728 18.053 18.0529 17.2729 18.1898 16.273C18.2684 15.6994 18.3333 15.0765 18.3333 14.5833C18.3333 14.0901 18.2684 13.4672 18.1898 12.8937C18.0529 11.8938 17.2728 11.1137 16.2729 10.9767C15.6994 10.8982 15.0765 10.8333 14.5833 10.8333C14.0901 10.8333 13.4671 10.8982 12.8936 10.9767Z" fill="#5F6165"/>
<path fill-rule="evenodd" clip-rule="evenodd" d="M5.41675 12.5C5.03993 12.5 4.50752 12.5521 3.95326 12.628C3.69432 12.6634 3.49687 12.8609 3.46141 13.1198C3.3855 13.6741 3.33341 14.2065 3.33341 14.5833C3.33341 14.9601 3.3855 15.4925 3.46141 16.0468C3.49687 16.3057 3.69432 16.5032 3.95326 16.5387C4.50752 16.6146 5.03993 16.6666 5.41675 16.6666C5.79357 16.6666 6.32598 16.6146 6.88024 16.5387C7.13918 16.5032 7.33662 16.3057 7.37209 16.0468C7.44799 15.4925 7.50008 14.9601 7.50008 14.5833C7.50008 14.2065 7.44799 13.6741 7.37209 13.1198C7.33662 12.8609 7.13918 12.6634 6.88024 12.628C6.32598 12.5521 5.79357 12.5 5.41675 12.5ZM3.72711 10.9767C2.72719 11.1137 1.9471 11.8938 1.81016 12.8937C1.73161 13.4672 1.66675 14.0901 1.66675 14.5833C1.66675 15.0765 1.73161 15.6994 1.81016 16.273C1.9471 17.2729 2.72719 18.053 3.72711 18.1899C4.30062 18.2684 4.92355 18.3333 5.41675 18.3333C5.90995 18.3333 6.53288 18.2684 7.10639 18.1899C8.1063 18.053 8.8864 17.2729 9.02334 16.273C9.10188 15.6994 9.16675 15.0765 9.16675 14.5833C9.16675 14.0901 9.10188 13.4672 9.02334 12.8937C8.8864 11.8938 8.1063 11.1137 7.10639 10.9767C6.53288 10.8982 5.90995 10.8333 5.41675 10.8333C4.92355 10.8333 4.30062 10.8982 3.72711 10.9767Z" fill="#5F6165"/>
<path fill-rule="evenodd" clip-rule="evenodd" d="M14.5833 3.33335C14.2064 3.33335 13.674 3.38544 13.1198 3.46135C12.8608 3.49681 12.6634 3.69426 12.6279 3.9532C12.552 4.50746 12.4999 5.03987 12.4999 5.41669C12.4999 5.7935 12.552 6.32592 12.6279 6.88018C12.6634 7.13912 12.8608 7.33656 13.1198 7.37203C13.674 7.44793 14.2064 7.50002 14.5833 7.50002C14.9601 7.50002 15.4925 7.44793 16.0467 7.37203C16.3057 7.33656 16.5031 7.13912 16.5386 6.88018C16.6145 6.32592 16.6666 5.7935 16.6666 5.41669C16.6666 5.03987 16.6145 4.50746 16.5386 3.9532C16.5031 3.69426 16.3057 3.49681 16.0467 3.46135C15.4925 3.38544 14.9601 3.33335 14.5833 3.33335ZM12.8936 1.8101C11.8937 1.94704 11.1136 2.72713 10.9767 3.72705C10.8981 4.30056 10.8333 4.92349 10.8333 5.41669C10.8333 5.90989 10.8981 6.53282 10.9767 7.10632C11.1136 8.10624 11.8937 8.88633 12.8936 9.02328C13.4671 9.10182 14.0901 9.16669 14.5833 9.16669C15.0765 9.16669 15.6994 9.10182 16.2729 9.02328C17.2728 8.88633 18.0529 8.10624 18.1898 7.10632C18.2684 6.53282 18.3333 5.90989 18.3333 5.41669C18.3333 4.92349 18.2684 4.30056 18.1898 3.72705C18.0529 2.72713 17.2728 1.94704 16.2729 1.8101C15.6994 1.73155 15.0765 1.66669 14.5833 1.66669C14.0901 1.66669 13.4671 1.73155 12.8936 1.8101Z" fill="#5F6165"/>
<path fill-rule="evenodd" clip-rule="evenodd" d="M5.41675 3.33335C5.03993 3.33335 4.50752 3.38544 3.95326 3.46135C3.69432 3.49681 3.49687 3.69426 3.46141 3.9532C3.3855 4.50746 3.33341 5.03987 3.33341 5.41669C3.33341 5.7935 3.3855 6.32592 3.46141 6.88018C3.49687 7.13912 3.69432 7.33656 3.95326 7.37203C4.50752 7.44793 5.03993 7.50002 5.41675 7.50002C5.79357 7.50002 6.32598 7.44793 6.88024 7.37203C7.13918 7.33656 7.33662 7.13912 7.37209 6.88018C7.44799 6.32592 7.50008 5.7935 7.50008 5.41669C7.50008 5.03987 7.44799 4.50746 7.37209 3.9532C7.33662 3.69426 7.13918 3.49681 6.88024 3.46135C6.32598 3.38544 5.79357 3.33335 5.41675 3.33335ZM3.72711 1.8101C2.72719 1.94704 1.9471 2.72713 1.81016 3.72705C1.73161 4.30056 1.66675 4.92349 1.66675 5.41669C1.66675 5.90989 1.73161 6.53282 1.81016 7.10632C1.9471 8.10624 2.72719 8.88633 3.72711 9.02328C4.30062 9.10182 4.92355 9.16669 5.41675 9.16669C5.90995 9.16669 6.53288 9.10182 7.10639 9.02328C8.1063 8.88633 8.8864 8.10624 9.02334 7.10632C9.10188 6.53282 9.16675 5.90989 9.16675 5.41669C9.16675 4.92349 9.10188 4.30056 9.02334 3.72705C8.8864 2.72713 8.1063 1.94704 7.10639 1.8101C6.53288 1.73155 5.90995 1.66669 5.41675 1.66669C4.92355 1.66669 4.30062 1.73155 3.72711 1.8101Z" fill="#5F6165"/>
</svg>
