<svg width="20" height="20" viewBox="0 0 20 20" fill="none" xmlns="http://www.w3.org/2000/svg">
<path fill-rule="evenodd" clip-rule="evenodd" d="M9.19107 12.5006C9.65098 12.4832 10.0379 12.842 10.0552 13.3019C10.0944 14.3387 10.1494 15.0955 10.2034 15.638C10.2566 16.1724 10.5792 16.4939 11.0289 16.5488C11.5591 16.6136 12.307 16.6667 13.3334 16.6667C14.3598 16.6667 15.1078 16.6136 15.638 16.5488C16.0874 16.4939 16.4101 16.1722 16.4634 15.6378C16.5637 14.6307 16.6667 12.8907 16.6667 10C16.6667 7.10933 16.5637 5.36935 16.4634 4.36224C16.4101 3.82778 16.0874 3.50615 15.638 3.45121C15.1078 3.38639 14.3598 3.33334 13.3334 3.33334C12.307 3.33334 11.5591 3.38639 11.0289 3.4512C10.5792 3.50617 10.2566 3.82766 10.2034 4.36199C10.1494 4.90455 10.0944 5.66129 10.0552 6.69811C10.0379 7.15802 9.65098 7.51678 9.19107 7.49942C8.73116 7.48205 8.3724 7.09515 8.38976 6.63524C8.42994 5.57105 8.4869 4.77953 8.54495 4.19677C8.667 2.97163 9.52117 1.95643 10.8266 1.79685C11.4343 1.72256 12.2507 1.66668 13.3334 1.66668C14.4161 1.66668 15.2325 1.72257 15.8402 1.79686C17.1458 1.95646 17.9998 2.97213 18.1218 4.19703C18.2293 5.27558 18.3334 7.07374 18.3334 10C18.3334 12.9263 18.2293 14.7244 18.1218 15.803C17.9998 17.0279 17.1458 18.0436 15.8402 18.2032C15.2325 18.2775 14.4161 18.3333 13.3334 18.3333C12.2507 18.3333 11.4343 18.2775 10.8266 18.2032C9.52117 18.0436 8.667 17.0284 8.54495 15.8032C8.4869 15.2205 8.42994 14.429 8.38976 13.3648C8.3724 12.9049 8.73116 12.518 9.19107 12.5006Z" fill="#72767C"/>
<path fill-rule="evenodd" clip-rule="evenodd" d="M6.006 12.3274C6.33144 12.6528 6.33144 13.1805 6.006 13.5059C5.68057 13.8314 5.15293 13.8314 4.82749 13.5059L1.91083 10.5893C1.58539 10.2638 1.58539 9.73618 1.91083 9.41074L4.82749 6.49408C5.15293 6.16864 5.68057 6.16864 6.006 6.49408C6.33144 6.81951 6.33144 7.34715 6.006 7.67259L4.51193 9.16667H12.5001C12.9603 9.16667 13.3334 9.53976 13.3334 10C13.3334 10.4602 12.9603 10.8333 12.5001 10.8333L4.51193 10.8333L6.006 12.3274Z" fill="#72767C"/>
</svg>
