<svg width="20" height="20" viewBox="0 0 20 20" fill="none" xmlns="http://www.w3.org/2000/svg">
<path fill-rule="evenodd" clip-rule="evenodd" d="M16.6246 5.90867C16.6333 5.25775 16.3893 4.6041 15.8926 4.10743C15.396 3.61077 14.7423 3.36676 14.0914 3.37542C14.0912 3.37543 14.0917 3.37542 14.0914 3.37542C13.7316 3.38032 13.372 3.4624 13.0409 3.62167C12.9222 3.67874 12.8072 3.74573 12.6969 3.82264C12.6544 3.85225 12.5998 3.85901 12.552 3.83918C12.5042 3.81936 12.4703 3.77593 12.4612 3.725C12.4376 3.59265 12.4036 3.46391 12.3601 3.33965C12.2386 2.99292 12.0428 2.68109 11.7919 2.42324C11.7917 2.42307 11.792 2.42342 11.7919 2.42324C11.3377 1.95685 10.7025 1.66666 10.0001 1.66666C9.29769 1.66666 8.66295 1.95632 8.20881 2.42271C8.20864 2.42289 8.20898 2.42254 8.20881 2.42271C7.95788 2.68056 7.76161 2.99292 7.64011 3.33965C7.59657 3.46391 7.56256 3.59265 7.53897 3.725C7.52989 3.77593 7.49599 3.81936 7.4482 3.83918C7.40038 3.85901 7.34573 3.85225 7.30326 3.82263C7.193 3.74573 7.07792 3.67874 6.95927 3.62167C6.62818 3.4624 6.26926 3.38033 5.90949 3.37543C5.90925 3.37543 5.90974 3.37544 5.90949 3.37543C5.25858 3.36677 4.60419 3.61077 4.10752 4.10743C3.61086 4.6041 3.36686 5.25775 3.37552 5.90867C3.37552 5.90891 3.37551 5.90842 3.37552 5.90867C3.38041 6.26843 3.46249 6.62808 3.62176 6.95917C3.67883 7.07782 3.74582 7.1929 3.82272 7.30317C3.85234 7.34563 3.8591 7.40029 3.83927 7.44811C3.81945 7.4959 3.77602 7.5298 3.72509 7.53888C3.59274 7.56247 3.46399 7.59648 3.33973 7.64003C2.993 7.76152 2.68118 7.95728 2.42333 8.20821C2.42316 8.20838 2.42351 8.20803 2.42333 8.20821C1.95694 8.66235 1.66675 9.2976 1.66675 9.99999C1.66675 10.7024 1.95641 11.3371 2.42281 11.7913C2.42298 11.7914 2.42263 11.7911 2.42281 11.7913C2.68065 12.0422 2.993 12.2385 3.33972 12.36C3.46399 12.4035 3.59274 12.4375 3.72509 12.4611C3.77602 12.4702 3.81945 12.5041 3.83927 12.5519C3.8591 12.5997 3.85234 12.6543 3.82273 12.6968C3.74582 12.8071 3.67883 12.9222 3.62175 13.0408C3.46249 13.3719 3.38042 13.7308 3.37553 14.0906C3.37552 14.0908 3.37553 14.0903 3.37553 14.0906C3.36687 14.7415 3.61086 15.3959 4.10752 15.8925C4.60419 16.3892 5.25785 16.6332 5.90876 16.6246C5.909 16.6246 5.90852 16.6246 5.90876 16.6246C6.26852 16.6197 6.62816 16.5376 6.95924 16.3783C7.0779 16.3212 7.19299 16.2543 7.30326 16.1773C7.34572 16.1477 7.40038 16.141 7.4482 16.1608C7.49599 16.1806 7.5299 16.2241 7.53897 16.275C7.56257 16.4073 7.59658 16.5361 7.64012 16.6604C7.76162 17.0071 7.95737 17.3189 8.2083 17.5767C8.20847 17.5769 8.20812 17.5766 8.2083 17.5767C8.66244 18.0431 9.29769 18.3333 10.0001 18.3333C10.7025 18.3333 11.3372 18.0437 11.7914 17.5773C11.7915 17.5771 11.7912 17.5774 11.7914 17.5773C12.0423 17.3194 12.2385 17.0071 12.36 16.6604C12.4036 16.5361 12.4376 16.4073 12.4612 16.275C12.4703 16.2241 12.5042 16.1806 12.552 16.1608C12.5998 16.141 12.6544 16.1477 12.6969 16.1773C12.8072 16.2543 12.9223 16.3212 13.0409 16.3783C13.372 16.5376 13.7309 16.6197 14.0907 16.6245C14.0909 16.6245 14.0904 16.6245 14.0907 16.6245C14.7416 16.6332 15.396 16.3892 15.8926 15.8925C16.3893 15.3959 16.6333 14.7422 16.6246 14.0913C16.6246 14.0911 16.6247 14.0916 16.6246 14.0913C16.6198 13.7316 16.5377 13.3719 16.3784 13.0408C16.3213 12.9222 16.2543 12.8071 16.1774 12.6968C16.1478 12.6543 16.1411 12.5997 16.1609 12.5519C16.1807 12.5041 16.2241 12.4702 16.2751 12.4611C16.4074 12.4375 16.5362 12.4035 16.6604 12.36C17.0072 12.2385 17.319 12.0427 17.5768 11.7918C17.577 11.7916 17.5767 11.7919 17.5768 11.7918C18.0432 11.3376 18.3334 10.7024 18.3334 9.99999C18.3334 9.2976 18.0437 8.66286 17.5774 8.20872C17.5772 8.20855 17.5775 8.20889 17.5774 8.20872C17.3195 7.95779 17.0072 7.76153 16.6604 7.64003C16.5362 7.59648 16.4074 7.56247 16.2751 7.53888C16.2241 7.5298 16.1807 7.4959 16.1609 7.44811C16.1411 7.40029 16.1478 7.34563 16.1774 7.30317C16.2543 7.1929 16.3213 7.07781 16.3784 6.95916C16.5377 6.62807 16.6198 6.26843 16.6246 5.90867C16.6247 5.90842 16.6246 5.90891 16.6246 5.90867ZM14.7141 5.28594C14.4254 4.99726 13.9743 4.96369 13.6503 5.18967C13.1587 5.53253 12.5059 5.62434 11.9135 5.37873C11.3228 5.13375 10.9257 4.60819 10.8204 4.01748C10.7511 3.62857 10.4083 3.33332 10.0001 3.33332C9.59182 3.33332 9.2491 3.62857 9.17977 4.01748C9.07448 4.60819 8.67739 5.13375 8.08662 5.37872C7.49431 5.62434 6.84145 5.53252 6.34985 5.18967C6.02583 4.96369 5.57472 4.99726 5.28604 5.28594C4.99735 5.57463 4.96378 6.02574 5.18976 6.34976C5.53262 6.84136 5.62443 7.49422 5.37882 8.08652C5.13384 8.6773 4.60828 9.07439 4.01757 9.17968C3.62866 9.24901 3.33341 9.59173 3.33341 9.99999C3.33341 10.4082 3.62866 10.751 4.01757 10.8203C4.60828 10.9256 5.13384 11.3227 5.37882 11.9135C5.62443 12.5058 5.53262 13.1586 5.18976 13.6502C4.96378 13.9742 4.99735 14.4254 5.28604 14.714C5.57472 15.0027 6.02583 15.0363 6.34985 14.8103C6.84144 14.4675 7.4943 14.3756 8.08661 14.6213C8.67738 14.8662 9.07448 15.3918 9.17978 15.9825C9.2491 16.3714 9.59182 16.6667 10.0001 16.6667C10.4083 16.6667 10.7511 16.3714 10.8204 15.9825C10.9257 15.3918 11.3228 14.8662 11.9135 14.6213C12.5059 14.3756 13.1587 14.4675 13.6503 14.8103C13.9743 15.0363 14.4254 15.0027 14.7141 14.714C15.0028 14.4254 15.0364 13.9742 14.8104 13.6502C14.4675 13.1586 14.3757 12.5058 14.6213 11.9135C14.8663 11.3227 15.3919 10.9256 15.9826 10.8203C16.3715 10.751 16.6667 10.4082 16.6667 9.99999C16.6667 9.59173 16.3715 9.24901 15.9826 9.17968C15.3919 9.07439 14.8663 8.6773 14.6213 8.08653C14.3757 7.49422 14.4676 6.84135 14.8104 6.34976C15.0364 6.02574 15.0028 5.57463 14.7141 5.28594Z" fill="#72767C"/>
<path fill-rule="evenodd" clip-rule="evenodd" d="M10.0001 11.6667C10.9206 11.6667 11.6667 10.9205 11.6667 9.99999C11.6667 9.07952 10.9206 8.33332 10.0001 8.33332C9.07961 8.33332 8.33341 9.07952 8.33341 9.99999C8.33341 10.9205 9.07961 11.6667 10.0001 11.6667ZM10.0001 13.3333C11.841 13.3333 13.3334 11.8409 13.3334 9.99999C13.3334 8.15904 11.841 6.66666 10.0001 6.66666C8.15913 6.66666 6.66675 8.15904 6.66675 9.99999C6.66675 11.8409 8.15913 13.3333 10.0001 13.3333Z" fill="#72767C"/>
</svg>
